<svg width="241" height="200" viewBox="0 0 241 200" fill="none" xmlns="http://www.w3.org/2000/svg">
<path d="M121.142 90.4465C129.342 90.4465 137.028 93.6331 142.815 99.397C148.602 105.161 151.789 112.846 151.789 121C151.789 129.154 148.602 136.839 142.815 142.603C137.028 148.367 129.319 151.553 121.142 151.553C112.941 151.553 105.256 148.367 99.4683 142.603C93.6809 136.839 90.4944 129.154 90.4944 121C90.4944 112.846 93.6809 105.161 99.4683 99.397C105.232 93.6331 112.941 90.4465 121.142 90.4465ZM121.142 85.0575C101.226 85.0575 85.0585 101.154 85.0585 121C85.0585 140.846 101.202 156.943 121.142 156.943C141.081 156.943 157.225 140.846 157.225 121C157.225 101.154 141.058 85.0575 121.142 85.0575Z" fill="#FFE394"/>
<path d="M118.424 68H113.012V73.389H118.424V94.9452H123.837V73.389H129.249V68H123.837H118.424Z" fill="#F7605F"/>
<path d="M83.7929 90.1887L79.1067 87.4942L76.4122 92.1569L73.7177 96.8196L71.0232 101.482L75.7093 104.177L78.4038 99.5141L97.1483 110.292L99.8428 105.629L81.0984 94.8514L83.7929 90.1887Z" fill="#F7605F"/>
<path d="M97.1251 131.684L78.3806 142.462L75.6861 137.8L71 140.494L79.107 154.506L83.7931 151.811L81.0986 147.148L99.8431 136.37L97.1251 131.684Z" fill="#F7605F"/>
<path d="M123.837 147.055H118.424V168.611H113.012V174H118.424H123.837H129.249V168.611H123.837V147.055Z" fill="#F7605F"/>
<path d="M163.879 142.462L145.134 131.684L142.44 136.347L161.184 147.125L158.49 151.788L163.176 154.482L171.283 140.471L166.597 137.776L163.879 142.462Z" fill="#F7605F"/>
<path d="M145.134 110.316L163.879 99.5376L166.573 104.2L171.259 101.506L168.565 96.8431L165.87 92.1804L163.176 87.5177L158.49 90.2122L161.184 94.8749L142.44 105.653L145.134 110.316Z" fill="#F7605F"/>
<path d="M74.4082 47.057C74.6168 47.057 74.8021 47.1497 74.9643 47.3119L76.4936 48.957C75.6594 49.9996 74.6168 50.7874 73.3887 51.3435C72.1607 51.8996 70.701 52.1776 68.9864 52.1776C67.4571 52.1776 66.0669 51.9227 64.8389 51.3898C63.6109 50.8569 62.5682 50.1386 61.7109 49.1887C60.8305 48.2618 60.1817 47.1265 59.6951 45.829C59.2317 44.5314 59 43.1181 59 41.5656C59 40.0132 59.2549 38.5767 59.7414 37.3023C60.228 36.0048 60.9463 34.8926 61.8268 33.9426C62.7304 33.0158 63.8194 32.2744 65.0706 31.7646C66.2986 31.2549 67.6889 31 69.1949 31C70.701 31 72.0449 31.2549 73.2034 31.7414C74.3851 32.228 75.3814 32.8768 76.1923 33.6878L74.8948 35.4719C74.8253 35.5877 74.7094 35.6804 74.5936 35.7731C74.4777 35.8658 74.3155 35.9121 74.107 35.9121C73.968 35.9121 73.8058 35.8658 73.6668 35.7962C73.5046 35.7036 73.3424 35.6109 73.157 35.495C72.9717 35.3792 72.7631 35.2402 72.5314 35.1011C72.2997 34.9621 72.0217 34.8231 71.6973 34.7072C71.3729 34.5914 71.0254 34.4755 70.5851 34.406C70.1681 34.3133 69.7047 34.267 69.1486 34.267C68.2218 34.267 67.3645 34.4292 66.5998 34.7768C65.8352 35.1011 65.1865 35.5877 64.6304 36.2133C64.0743 36.8389 63.6572 37.6035 63.3328 38.5072C63.0316 39.4108 62.8694 40.4303 62.8694 41.5888C62.8694 42.7473 63.0316 43.79 63.356 44.6936C63.6804 45.5973 64.1438 46.3619 64.6999 46.9875C65.256 47.6131 65.9279 48.0765 66.6925 48.424C67.4571 48.7484 68.2681 48.9106 69.1486 48.9106C69.6815 48.9106 70.1449 48.8874 70.562 48.8179C71.0022 48.7716 71.3729 48.6789 71.7437 48.5399C72.1144 48.424 72.4388 48.2618 72.7631 48.0765C73.0875 47.868 73.4119 47.6363 73.7131 47.335C73.8058 47.2424 73.8985 47.1728 74.0143 47.1265C74.1765 47.0802 74.2924 47.057 74.4082 47.057ZM98.4358 41.5888C98.4358 43.118 98.1809 44.5083 97.6712 45.8058C97.1846 47.1033 96.4663 48.2155 95.5395 49.1655C94.6127 50.1155 93.5237 50.8569 92.2262 51.3898C90.9286 51.9227 89.5152 52.1776 87.9397 52.1776C86.3641 52.1776 84.9507 51.9227 83.6532 51.3898C82.3556 50.8569 81.2666 50.1155 80.3398 49.1655C79.413 48.2155 78.7179 47.1033 78.2082 45.8058C77.6984 44.5083 77.4435 43.0949 77.4435 41.5888C77.4435 40.0596 77.6984 38.6694 78.2082 37.3718C78.7179 36.0743 79.4362 34.9621 80.3398 34.0121C81.2666 33.0622 82.3788 32.3207 83.6532 31.811C84.9507 31.278 86.3873 31 87.9397 31C88.9823 31 89.9787 31.1159 90.9055 31.3707C91.8323 31.6024 92.6896 31.95 93.4542 32.4134C94.2188 32.8536 94.9139 33.3865 95.5395 34.0353C96.1651 34.6609 96.6749 35.3792 97.1151 36.167C97.5553 36.9548 97.8797 37.7889 98.0882 38.7157C98.32 39.6193 98.4358 40.5693 98.4358 41.5888ZM94.4969 41.5888C94.4969 40.4535 94.3347 39.434 94.0335 38.5303C93.7322 37.6267 93.292 36.8621 92.7359 36.2133C92.1798 35.5877 91.4847 35.1011 90.6738 34.7768C89.8628 34.4524 88.9592 34.267 87.9628 34.267C86.9433 34.267 86.0397 34.4292 85.2287 34.7768C84.4178 35.1011 83.7459 35.5877 83.1666 36.2133C82.6105 36.8389 82.1703 37.6035 81.8691 38.5303C81.5678 39.434 81.4057 40.4535 81.4057 41.5888C81.4057 42.7242 81.5678 43.7436 81.8691 44.6473C82.1703 45.5509 82.6105 46.3155 83.1666 46.9411C83.7459 47.5667 84.4178 48.0301 85.2287 48.3777C86.0397 48.7021 86.9433 48.8874 87.9628 48.8874C88.9823 48.8874 89.886 48.7253 90.6738 48.3777C91.4847 48.0533 92.1798 47.5667 92.7359 46.9411C93.292 46.3155 93.7322 45.5509 94.0335 44.6473C94.3347 43.7436 94.4969 42.7242 94.4969 41.5888ZM108.075 41.0791C108.793 41.0791 109.442 40.9864 109.975 40.801C110.508 40.6157 110.971 40.3608 111.318 40.0596C111.666 39.7352 111.944 39.3413 112.106 38.9242C112.268 38.484 112.361 37.9974 112.361 37.4877C112.361 36.445 112.014 35.6341 111.318 35.078C110.623 34.5219 109.581 34.2438 108.144 34.2438H105.688V41.1254H108.075V41.0791ZM117.992 51.9459H114.516C113.867 51.9459 113.381 51.691 113.079 51.1813L108.723 44.5546C108.561 44.2997 108.376 44.1375 108.19 44.0217C108.005 43.9058 107.704 43.8595 107.333 43.8595H105.688V51.9459H101.842V31.2317H108.167C109.581 31.2317 110.786 31.3707 111.782 31.6719C112.801 31.95 113.612 32.367 114.261 32.9C114.91 33.4329 115.396 34.0585 115.698 34.7999C115.999 35.5182 116.161 36.3292 116.161 37.2096C116.161 37.9047 116.045 38.5767 115.837 39.1791C115.628 39.8047 115.35 40.3608 114.956 40.8705C114.585 41.3803 114.099 41.8205 113.52 42.2144C112.964 42.5851 112.315 42.8863 111.597 43.118C111.851 43.2571 112.083 43.4424 112.292 43.6278C112.5 43.8132 112.686 44.0449 112.871 44.3229L117.992 51.9459ZM138.613 41.5888C138.613 43.118 138.358 44.5083 137.848 45.7826C137.339 47.057 136.62 48.146 135.717 49.0728C134.79 49.9996 133.701 50.6947 132.403 51.2045C131.106 51.7142 129.692 51.9691 128.117 51.9691H120.216V31.2317H128.117C129.692 31.2317 131.129 31.4866 132.403 31.9963C133.701 32.5061 134.79 33.2243 135.717 34.128C136.644 35.0316 137.339 36.1206 137.848 37.395C138.381 38.6694 138.613 40.0596 138.613 41.5888ZM134.674 41.5888C134.674 40.4535 134.512 39.434 134.211 38.5303C133.909 37.6267 133.469 36.8621 132.913 36.2365C132.357 35.6109 131.662 35.1243 130.851 34.7999C130.04 34.4755 129.136 34.2902 128.14 34.2902H124.085V48.8643H128.117C129.136 48.8643 130.04 48.7021 130.828 48.3545C131.639 48.0301 132.334 47.5436 132.89 46.918C133.469 46.2924 133.909 45.5278 134.188 44.6241C134.512 43.7436 134.674 42.7242 134.674 41.5888ZM141.347 41.8205H148.762V44.7631H141.347V41.8205ZM165.236 49.3045V51.9459H153.766V49.3045H157.96V37.2328C157.96 36.7462 157.983 36.2597 158.007 35.7499L155.018 38.2523C154.855 38.3913 154.67 38.4608 154.508 38.5072C154.346 38.5303 154.183 38.5303 154.044 38.5072C153.905 38.484 153.766 38.4377 153.651 38.3681C153.535 38.2986 153.442 38.206 153.396 38.1133L152.284 36.584L158.609 31.2085H161.528V49.3045H165.236V49.3045ZM171.747 37.4413C171.747 38.5998 172.048 39.4803 172.627 40.0827C173.229 40.6852 174.087 40.9864 175.176 40.9864C175.755 40.9864 176.265 40.8937 176.705 40.7083C177.145 40.523 177.539 40.2681 177.84 39.9669C178.142 39.6425 178.373 39.2718 178.535 38.8547C178.698 38.4145 178.79 37.9511 178.79 37.4645C178.79 36.9084 178.698 36.3987 178.535 35.9584C178.373 35.5182 178.118 35.1243 177.794 34.8231C177.47 34.5219 177.099 34.2902 176.659 34.128C176.218 33.9658 175.755 33.8731 175.245 33.8731C174.712 33.8731 174.226 33.9658 173.809 34.1512C173.368 34.3133 173.021 34.5682 172.697 34.8926C172.395 35.217 172.164 35.5877 172.001 36.0279C171.839 36.4682 171.747 36.9316 171.747 37.4413ZM176.45 43.9058C176.612 43.6973 176.774 43.5119 176.914 43.3266C177.053 43.1412 177.192 42.9559 177.331 42.7473C176.844 43.0485 176.334 43.2802 175.755 43.4424C175.176 43.6046 174.573 43.6741 173.948 43.6741C173.229 43.6741 172.534 43.5583 171.839 43.3034C171.144 43.0485 170.542 42.6778 170.009 42.1912C169.476 41.6815 169.036 41.0559 168.711 40.3376C168.387 39.5962 168.225 38.7157 168.225 37.7194C168.225 36.7926 168.387 35.9353 168.734 35.1011C169.082 34.2902 169.569 33.5719 170.171 32.9695C170.797 32.367 171.538 31.8805 172.395 31.5329C173.276 31.1854 174.249 31 175.292 31C176.357 31 177.307 31.1622 178.142 31.5097C178.999 31.8341 179.717 32.3207 180.296 32.9231C180.899 33.5256 181.362 34.2438 181.663 35.078C181.988 35.9121 182.15 36.8389 182.15 37.8352C182.15 38.484 182.104 39.0864 181.988 39.6657C181.872 40.2449 181.733 40.801 181.524 41.3339C181.316 41.8669 181.084 42.3766 180.783 42.8863C180.505 43.3961 180.181 43.8827 179.833 44.3924L175.083 51.1581C174.921 51.3898 174.666 51.5752 174.342 51.7374C174.017 51.8996 173.647 51.9691 173.229 51.9691H169.986L176.45 43.9058Z" fill="white"/>
</svg>
